<?xml version="1.0" encoding="utf-8"?>
<!-- Generator: Adobe Illustrator 18.1.1, SVG Export Plug-In . SVG Version: 6.00 Build 0)  -->
<svg version="1.1" id="Layer_1" xmlns="http://www.w3.org/2000/svg" xmlns:xlink="http://www.w3.org/1999/xlink" x="0px" y="0px"
	 viewBox="0 0 55.9 54.4" enable-background="new 0 0 55.9 54.4" xml:space="preserve">
<path fill="#306692" d="M39.5,35.9l2-6.1l-1.8-0.6l-2,6.1c-0.3,0-0.5-0.1-0.8-0.1c-2.1,0-3.9,1-5,2.6l-8.4-4.2
	c0.2-0.6,0.4-1.3,0.4-2.1c0-1.4-0.5-2.6-1.3-3.7l6.1-6.1c0.9,0.6,2,0.9,3.2,0.9c3.4,0,6.1-2.7,6.1-6.1s-2.7-6.1-6.1-6.1
	s-6.1,2.7-6.1,6.1c0,1.5,0.6,2.8,1.5,3.9l-6,6c-1-0.7-2.2-1.1-3.4-1.1c-3.4,0-6.1,2.7-6.1,6.1s2.7,6.1,6.1,6.1
	c1.9,0,3.6-0.9,4.8-2.3l8.5,4.2c-0.2,0.6-0.3,1.1-0.3,1.7c0,3.4,2.7,6.1,6.1,6.1s6.1-2.7,6.1-6.1C43,38.9,41.6,36.8,39.5,35.9z"/>
</svg>
